<svg width="46" height="44" viewBox="0 0 46 44" fill="none" xmlns="http://www.w3.org/2000/svg">
<path d="M13.6826 27.5C12.9088 27.5 12.2672 26.8767 12.2672 26.125V24.75H8.49265V26.125C8.49265 26.8767 7.85098 27.5 7.07721 27.5C6.30343 27.5 5.66176 26.8767 5.66176 26.125V18.3333C5.66176 17.325 6.51103 16.5 7.54902 16.5H13.2108C14.2488 16.5 15.098 17.325 15.098 18.3333V26.125C15.098 26.8767 14.4564 27.5 13.6826 27.5ZM12.2672 19.25H8.49265V22H12.2672V19.25ZM25.4779 22C26.5159 22 27.3652 22.825 27.3652 23.8333V25.6667C27.3652 26.675 26.5159 27.5 25.4779 27.5H19.8162C18.7782 27.5 17.9289 26.675 17.9289 25.6667V18.3333C17.9289 17.325 18.7782 16.5 19.8162 16.5H25.4779C26.5159 16.5 27.3652 17.325 27.3652 18.3333V20.1667C27.3652 21.175 26.5159 22 25.4779 22ZM20.7598 19.25V20.625H24.5343V19.25H20.7598ZM24.5343 23.375H20.7598V24.75H24.5343V23.375ZM39.6324 18.7917C39.6324 19.5433 38.9907 20.1667 38.2169 20.1667C37.9239 20.1651 37.6384 20.0764 37.3989 19.9126C37.1593 19.7487 36.9772 19.5175 36.877 19.25H33.027V24.75H36.877C37.0657 24.2183 37.5941 23.8333 38.2169 23.8333C38.9907 23.8333 39.6324 24.4567 39.6324 25.2083V25.6667C39.6324 26.675 38.7831 27.5 37.7451 27.5H32.0833C31.0453 27.5 30.1961 26.675 30.1961 25.6667V18.3333C30.1961 17.325 31.0453 16.5 32.0833 16.5H37.7451C38.7831 16.5 39.6324 17.325 39.6324 18.3333V18.7917Z" fill="white"/>
</svg>
