<svg width="32" height="32" viewBox="0 0 32 32" fill="none" xmlns="http://www.w3.org/2000/svg">
<path d="M6.66675 12C6.66675 6.84534 10.8454 2.66666 16.0001 2.66666C21.1547 2.66666 25.3334 6.84534 25.3334 12C25.3334 14.7 24.4407 17.6476 22.8673 19.9408C21.4767 21.9673 19.4759 23.5827 17.0001 23.9305V24.3333C17.0001 24.8856 17.4478 25.3333 18.0001 25.3333H22.3334C23.9902 25.3333 25.3334 26.6765 25.3334 28.3333V29.6667C25.3334 30.2189 24.8857 30.6667 24.3334 30.6667C23.7811 30.6667 23.3334 30.2189 23.3334 29.6667V28.3333C23.3334 27.7811 22.8857 27.3333 22.3334 27.3333H18.0001C16.3433 27.3333 15.0001 25.9901 15.0001 24.3333V23.9305C12.5242 23.5827 10.5234 21.9673 9.13285 19.9408C7.55944 17.6476 6.66675 14.7 6.66675 12ZM17.2262 6.8085C16.6887 6.68191 16.1502 7.01508 16.0237 7.55266C15.8971 8.09024 16.2302 8.62866 16.7678 8.75524C17.9889 9.04278 18.9529 10.0049 19.243 11.225C19.3707 11.7622 19.9099 12.0942 20.4471 11.9664C20.9845 11.8387 21.3165 11.2995 21.1887 10.7622C20.7235 8.80611 19.1841 7.26951 17.2262 6.8085Z" fill="white"/>
</svg>
