<svg width="32" height="32" viewBox="0 0 32 32" fill="none" xmlns="http://www.w3.org/2000/svg">
<path d="M16.8 3.20001C16.3582 3.20001 16 3.55819 16 4.00001V8.16001C16 10.3626 17.483 12.2179 19.5052 12.7832C19.1531 17.1682 17.8849 20.4395 16.8464 22.4581C17.1408 22.8029 17.4179 23.0615 17.6335 23.2418C18.4633 23.9359 19.2 25.0679 19.2 26.4781C19.2 27.3471 18.9174 28.1499 18.4391 28.8H27.1999C28.5254 28.8 29.5999 27.7255 29.5999 26.4V25.9082C29.5999 25.3522 29.4102 24.8384 29.1172 24.4176C28.2519 23.1751 25.8064 19.1547 25.2947 12.7832C27.3169 12.2179 28.7999 10.3626 28.7999 8.16001V4.00001C28.7999 3.55819 28.4417 3.20001 28 3.20001H26.7999C26.1372 3.20001 25.5999 3.73728 25.5999 4.40001V5.60001C25.5999 6.04105 25.243 6.39891 24.8019 6.40001C24.3609 6.40112 24.0022 6.04505 24 5.60401V5.60001L23.9939 4.39401C23.9907 3.73361 23.4543 3.20001 22.7939 3.20001H22.006C21.3456 3.20001 20.8092 3.73361 20.806 4.39401L20.7999 5.60401C20.7977 6.04505 20.439 6.40112 19.9979 6.40001C19.5569 6.39891 19.2 6.04105 19.2 5.60001V4.40001C19.2 3.73728 18.6627 3.20001 18 3.20001H16.8ZM10.4 8.00001C7.74899 8.00001 5.59995 10.1491 5.59995 12.8C5.59995 14.0294 6.06211 15.1508 6.82217 16H6.39995C5.5163 16 4.79995 16.7163 4.79995 17.6C4.79995 18.4837 5.5163 19.2 6.39995 19.2H7.23051C6.63733 22.0768 5.0679 23.7373 4.19294 24.4691C3.63781 24.9335 3.19995 25.6464 3.19995 26.4781C3.19995 27.7605 4.2395 28.8 5.52187 28.8H15.278C16.5604 28.8 17.6 27.7605 17.6 26.4781C17.6 25.6464 17.162 24.9335 16.607 24.4691C15.732 23.7373 14.1626 22.0768 13.5694 19.2H14.4C15.2836 19.2 16 18.4837 16 17.6C16 16.7163 15.2836 16 14.4 16H13.9777C14.7378 15.1508 15.2 14.0294 15.2 12.8C15.2 10.1491 13.0509 8.00001 10.4 8.00001Z" fill="white"/>
</svg>
