<svg width="24" height="24" viewBox="0 0 24 24" fill="none" xmlns="http://www.w3.org/2000/svg">
<path d="M7.444 12.906L7.899 13.359C7.899 13.359 8.982 14.435 11.937 11.497C14.892 8.55898 13.809 7.48298 13.809 7.48298L13.523 7.19698C12.816 6.49498 12.749 5.36698 13.366 4.54298L14.626 2.85998C15.39 1.83998 16.865 1.70498 17.74 2.57498L19.31 4.13498C19.743 4.56698 20.033 5.12498 19.998 5.74498C19.908 7.33198 19.19 10.745 15.186 14.727C10.939 18.949 6.954 19.117 5.325 18.965C4.809 18.917 4.361 18.655 4 18.295L2.58 16.883C1.62 15.93 1.89 14.295 3.118 13.628L5.028 12.589C5.834 12.151 6.814 12.28 7.444 12.906Z" fill="white"/>
</svg>
