<svg width="32" height="32" viewBox="0 0 32 32" fill="none" xmlns="http://www.w3.org/2000/svg">
<path d="M17.6146 4.1362C16.9543 2.79834 15.0466 2.79836 14.3863 4.1362L11.2424 10.5065L4.21232 11.528C2.73592 11.7425 2.14641 13.5569 3.21473 14.5983L8.30172 19.5568L7.10084 26.5585C6.84865 28.0289 8.39202 29.1503 9.71256 28.456L16.0004 25.1503L22.2883 28.456C23.6088 29.1503 25.1522 28.0289 24.8999 26.5585L23.6991 19.5568L28.786 14.5983C29.8544 13.5569 29.2648 11.7425 27.7884 11.528L20.7584 10.5065L17.6146 4.1362ZM1.55242 5.04136C1.20741 5.47261 1.27733 6.1019 1.7086 6.44692L5.04193 9.11358C5.47318 9.4586 6.10248 9.38868 6.44749 8.95741C6.7925 8.52614 6.72258 7.89686 6.29132 7.55185L2.95798 4.88518C2.52672 4.54017 1.89742 4.61009 1.55242 5.04136ZM30.4475 24.2908C30.7926 23.8595 30.7226 23.2301 30.2914 22.8852L26.958 20.2185C26.5267 19.8735 25.8975 19.9435 25.5524 20.3747C25.2074 20.806 25.2774 21.4352 25.7086 21.7803L29.0419 24.4469C29.4732 24.7919 30.1024 24.722 30.4475 24.2908ZM1.7086 22.8852C1.27733 23.2301 1.20741 23.8595 1.55242 24.2908C1.89742 24.722 2.52672 24.7919 2.95798 24.4469L6.29132 21.7803C6.72258 21.4352 6.7925 20.806 6.44749 20.3747C6.10248 19.9435 5.47318 19.8735 5.04193 20.2185L1.7086 22.8852ZM30.4475 5.04136C30.7926 5.47261 30.7226 6.1019 30.2914 6.44692L26.958 9.11358C26.5267 9.4586 25.8975 9.38868 25.5524 8.95741C25.2074 8.52614 25.2774 7.89686 25.7086 7.55185L29.0419 4.88518C29.4732 4.54017 30.1024 4.61009 30.4475 5.04136Z" fill="#3CA642"/>
</svg>
